<?xml version="1.0" standalone="no"?>
<!DOCTYPE svg PUBLIC "-//W3C//DTD SVG 20010904//EN"
 "http://www.w3.org/TR/2001/REC-SVG-20010904/DTD/svg10.dtd">
<svg version="1.0" xmlns="http://www.w3.org/2000/svg"
 width="512.000000pt" height="512.000000pt" viewBox="0 0 512.000000 512.000000"
 preserveAspectRatio="xMidYMid meet">
<metadata>
Created by potrace 1.11, written by Peter Selinger 2001-2013
</metadata>
<g transform="translate(0.000000,512.000000) scale(0.100000,-0.100000)"
fill="#000000" stroke="none">
<path d="M1200 4401 l0 -639 -72 -4 c-82 -4 -133 -25 -177 -70 -63 -64 -66
-80 -69 -345 -3 -208 -5 -243 -18 -243 -20 0 -124 -104 -124 -124 0 -12 -32
-15 -209 -18 l-209 -3 -54 -37 c-37 -26 -62 -53 -79 -85 -24 -48 -24 -49 -27
-417 l-3 -369 -23 -31 c-41 -53 -59 -122 -52 -200 14 -167 137 -285 303 -292
133 -6 242 60 303 182 44 88 35 219 -20 301 l-30 44 0 215 0 214 50 0 c35 0
50 -4 50 -14 0 -21 76 -102 110 -116 l30 -12 0 -432 0 -431 -125 -127 c-101
-102 -132 -140 -158 -195 l-32 -68 -3 -331 c-2 -367 1 -393 63 -489 44 -68 93
-111 173 -148 l67 -32 1842 -2 1842 -3 57 21 c113 42 197 121 245 229 24 55
24 56 24 405 l0 350 -32 68 c-26 55 -57 93 -158 195 l-125 127 0 427 0 428 38
24 c46 30 88 74 97 104 6 22 9 22 176 22 l169 0 0 240 0 240 -170 0 c-137 0
-170 3 -170 14 0 21 -76 102 -109 116 l-29 12 -4 246 c-4 267 -6 277 -65 336
-51 52 -89 68 -173 73 l-80 6 0 376 0 375 -263 263 -262 263 -1258 0 -1257 0
0 -639z m2400 239 l0 -240 240 0 240 0 0 -640 0 -640 -1360 0 -1360 0 0 880 0
880 1120 0 1120 0 0 -240z m359 -76 c2 -2 -41 -4 -97 -4 l-102 0 0 104 0 104
98 -100 c53 -54 99 -101 101 -104z m-2759 -1204 l0 -240 -80 0 -80 0 0 213 c0
186 3 215 18 233 22 27 36 32 95 33 l47 1 0 -240z m3171 221 c24 -19 24 -22
27 -240 l3 -221 -80 0 -81 0 0 240 0 240 54 0 c38 0 61 -6 77 -19z m-3011
-861 l0 -240 -214 0 c-285 0 -261 -22 -261 240 l0 201 25 19 c23 18 43 20 238
20 l212 0 0 -240z m2560 0 l0 -240 -1200 0 -1200 0 0 240 0 240 1200 0 1200 0
0 -240z m611 221 c24 -19 24 -23 27 -215 l3 -196 -27 -25 -27 -25 -213 0 -214
0 0 240 0 240 214 0 c196 0 216 -2 237 -19z m-3811 -221 l0 -80 -120 0 -120 0
0 -326 0 -327 34 -38 c65 -72 58 -172 -17 -233 -41 -33 -105 -43 -158 -24 -64
22 -110 113 -94 187 3 16 22 47 41 69 l34 40 0 382 0 381 26 24 c26 25 30 25
200 25 l174 0 0 -80z m4160 0 l0 -80 -80 0 -80 0 0 80 0 80 80 0 80 0 0 -80z
m-3308 -432 c30 -62 137 -195 218 -271 180 -169 382 -271 632 -316 203 -38
595 -21 738 31 8 3 44 16 80 29 84 30 198 89 280 147 118 83 308 291 351 386
l12 26 259 0 258 0 0 -400 0 -400 -1680 0 -1680 0 0 400 0 400 258 0 258 0 16
-32z m428 -104 l0 -135 -29 20 c-45 33 -155 145 -195 200 l-36 51 130 0 130 0
0 -136z m320 -79 c0 -118 -2 -215 -4 -215 -8 0 -89 30 -121 46 l-35 16 0 184
0 184 80 0 80 0 0 -215z m320 -26 l0 -240 -62 5 c-35 2 -71 5 -80 5 -17 1 -18
19 -18 236 l0 235 80 0 80 0 0 -241z m320 6 c0 -217 -1 -235 -17 -236 -10 -1
-46 -3 -80 -5 l-63 -3 0 239 0 240 80 0 80 0 0 -235z m318 49 l-3 -187 -70
-28 c-38 -16 -73 -29 -77 -29 -5 0 -8 97 -8 215 l0 215 80 0 80 0 -2 -186z
m391 141 c-37 -52 -158 -176 -201 -206 l-28 -20 0 135 0 136 131 0 130 0 -32
-45z m892 -1030 c63 -63 123 -132 134 -152 19 -36 20 -57 20 -358 0 -288 -2
-324 -18 -356 -24 -47 -68 -92 -115 -115 -36 -18 -104 -19 -1867 -19 l-1830 0
-45 29 c-50 31 -90 82 -109 136 -8 24 -11 127 -11 330 1 363 -6 341 160 506
l115 114 1726 0 1726 0 114 -115z"/>
<path d="M1520 4640 l0 -80 80 0 80 0 0 80 0 80 -80 0 -80 0 0 -80z"/>
<path d="M1840 4640 l0 -80 800 0 800 0 0 80 0 80 -800 0 -800 0 0 -80z"/>
<path d="M1520 4320 l0 -80 960 0 960 0 0 80 0 80 -960 0 -960 0 0 -80z"/>
<path d="M1520 4000 l0 -80 1200 0 1200 0 0 80 0 80 -1200 0 -1200 0 0 -80z"/>
<path d="M1520 3680 l0 -80 1200 0 1200 0 0 80 0 80 -1200 0 -1200 0 0 -80z"/>
<path d="M1520 3360 l0 -80 1200 0 1200 0 0 80 0 80 -1200 0 -1200 0 0 -80z"/>
<path d="M1200 2080 l0 -80 80 0 80 0 0 80 0 80 -80 0 -80 0 0 -80z"/>
<path d="M4080 2080 l0 -80 80 0 80 0 0 80 0 80 -80 0 -80 0 0 -80z"/>
<path d="M1200 1760 l0 -80 80 0 80 0 0 80 0 80 -80 0 -80 0 0 -80z"/>
<path d="M4080 1760 l0 -80 80 0 80 0 0 80 0 80 -80 0 -80 0 0 -80z"/>
<path d="M1040 1120 l0 -80 80 0 80 0 0 80 0 80 -80 0 -80 0 0 -80z"/>
<path d="M1360 1120 l0 -80 80 0 80 0 0 80 0 80 -80 0 -80 0 0 -80z"/>
<path d="M1680 1120 l0 -80 80 0 80 0 0 80 0 80 -80 0 -80 0 0 -80z"/>
<path d="M2000 1120 l0 -80 80 0 80 0 0 80 0 80 -80 0 -80 0 0 -80z"/>
<path d="M2320 1120 l0 -80 80 0 80 0 0 80 0 80 -80 0 -80 0 0 -80z"/>
<path d="M2640 1120 l0 -80 80 0 80 0 0 80 0 80 -80 0 -80 0 0 -80z"/>
<path d="M2960 1120 l0 -80 80 0 80 0 0 80 0 80 -80 0 -80 0 0 -80z"/>
<path d="M3280 1120 l0 -80 80 0 80 0 0 80 0 80 -80 0 -80 0 0 -80z"/>
<path d="M3600 1120 l0 -80 80 0 80 0 0 80 0 80 -80 0 -80 0 0 -80z"/>
<path d="M3920 1120 l0 -80 80 0 80 0 0 80 0 80 -80 0 -80 0 0 -80z"/>
<path d="M4240 1120 l0 -80 80 0 80 0 0 80 0 80 -80 0 -80 0 0 -80z"/>
<path d="M1040 800 l0 -80 80 0 80 0 0 80 0 80 -80 0 -80 0 0 -80z"/>
<path d="M1360 800 l0 -80 80 0 80 0 0 80 0 80 -80 0 -80 0 0 -80z"/>
<path d="M1680 800 l0 -80 80 0 80 0 0 80 0 80 -80 0 -80 0 0 -80z"/>
<path d="M2000 800 l0 -80 80 0 80 0 0 80 0 80 -80 0 -80 0 0 -80z"/>
<path d="M2320 800 l0 -80 80 0 80 0 0 80 0 80 -80 0 -80 0 0 -80z"/>
<path d="M2640 800 l0 -80 80 0 80 0 0 80 0 80 -80 0 -80 0 0 -80z"/>
<path d="M2960 800 l0 -80 80 0 80 0 0 80 0 80 -80 0 -80 0 0 -80z"/>
<path d="M3280 800 l0 -80 80 0 80 0 0 80 0 80 -80 0 -80 0 0 -80z"/>
<path d="M3600 800 l0 -80 80 0 80 0 0 80 0 80 -80 0 -80 0 0 -80z"/>
<path d="M3920 800 l0 -80 80 0 80 0 0 80 0 80 -80 0 -80 0 0 -80z"/>
<path d="M4240 800 l0 -80 80 0 80 0 0 80 0 80 -80 0 -80 0 0 -80z"/>
<path d="M1200 480 l0 -80 80 0 80 0 0 80 0 80 -80 0 -80 0 0 -80z"/>
<path d="M1520 480 l0 -80 80 0 80 0 0 80 0 80 -80 0 -80 0 0 -80z"/>
<path d="M1840 480 l0 -80 80 0 80 0 0 80 0 80 -80 0 -80 0 0 -80z"/>
<path d="M2160 480 l0 -80 80 0 80 0 0 80 0 80 -80 0 -80 0 0 -80z"/>
<path d="M2480 480 l0 -80 80 0 80 0 0 80 0 80 -80 0 -80 0 0 -80z"/>
<path d="M2800 480 l0 -80 80 0 80 0 0 80 0 80 -80 0 -80 0 0 -80z"/>
<path d="M3120 480 l0 -80 80 0 80 0 0 80 0 80 -80 0 -80 0 0 -80z"/>
<path d="M3440 480 l0 -80 80 0 80 0 0 80 0 80 -80 0 -80 0 0 -80z"/>
<path d="M3760 480 l0 -80 80 0 80 0 0 80 0 80 -80 0 -80 0 0 -80z"/>
<path d="M4080 480 l0 -80 80 0 80 0 0 80 0 80 -80 0 -80 0 0 -80z"/>
</g>
</svg>
